<svg width="65" height="64" viewBox="0 0 65 64" fill="none" xmlns="http://www.w3.org/2000/svg">
<g clip-path="url(#clip0)">
<path d="M63.0668 44.041C61.9721 44.041 61.0837 44.9295 61.0837 46.0241V59.9063H5.5548V46.0241C5.5548 44.9293 4.66627 44.041 3.57167 44.041C2.47708 44.041 1.58838 44.9293 1.58838 46.0241V61.8894C1.58838 62.9842 2.47691 63.8726 3.57151 63.8726H63.0668C64.1616 63.8726 65.05 62.984 65.05 61.8894V46.0241C65.0501 44.9293 64.1616 44.041 63.0668 44.041Z" fill="black"/>
<path d="M31.8715 47.4261C32.643 48.1897 33.9341 48.1976 34.7054 47.4261L48.5857 33.7422C49.3691 32.9668 49.3671 31.7114 48.5857 30.938C47.8043 30.1625 46.5351 30.1625 45.7538 30.938L35.2925 41.2506V2.39411C35.2925 1.29935 34.396 0.41098 33.2894 0.41098C32.1828 0.41098 31.2863 1.29951 31.2863 2.39411V41.2506L20.825 30.938C20.0417 30.1625 18.7745 30.1625 17.9931 30.938C17.2097 31.7134 17.2097 32.9687 17.9931 33.7422L31.8715 47.4261Z" fill="black"/>
</g>
<defs>
<clipPath id="clip0">
<rect width="63.4617" height="63.4617" fill="white" transform="translate(0.641174 0.41098)"/>
</clipPath>
</defs>
</svg>
