<svg width="82" height="82" viewBox="0 0 82 82" fill="none" xmlns="http://www.w3.org/2000/svg">
<g clip-path="url(#clip0)">
<path d="M55.1724 50.6205C54.0302 50.6205 53.1031 51.5454 53.1031 52.6898C53.1031 53.832 54.03 54.7591 55.1724 54.7591C56.3166 54.7591 57.2417 53.832 57.2417 52.6898C57.2417 51.5454 56.3166 50.6205 55.1724 50.6205Z" fill="black"/>
<path d="M49.8276 55.9653C48.6854 55.9653 47.7583 56.8923 47.7583 58.0346C47.7583 59.177 48.6853 60.1039 49.8276 60.1039C50.97 60.1039 51.8969 59.177 51.8969 58.0346C51.8969 56.8923 50.9698 55.9653 49.8276 55.9653Z" fill="black"/>
<path d="M62.7562 0.452301H19.8261C16.7146 0.452301 14.1834 2.98355 14.1834 6.0953V75.7287C14.1834 78.8401 16.7146 81.3717 19.8261 81.3717H57.6183C63.5627 81.3717 68.3989 76.5355 68.3989 70.5908V6.0953C68.3989 2.98355 65.8676 0.452301 62.7562 0.452301ZM64.2604 70.5905C64.2604 74.253 61.2808 77.233 57.6183 77.233H19.8261C18.9965 77.233 18.3218 76.558 18.3218 75.7284V6.0953C18.3218 5.26572 18.9965 4.59071 19.8261 4.59071H62.7562C63.5858 4.59071 64.2604 5.26572 64.2604 6.0953V70.5905Z" fill="black"/>
<path d="M57.8459 10.0804H24.7362C23.5934 10.0804 22.6669 11.007 22.6669 12.1497V41.5327C22.6669 42.6753 23.5934 43.6019 24.7362 43.6019H57.8457C58.9886 43.6019 59.915 42.6753 59.915 41.5327V12.1495C59.915 11.007 58.9887 10.0804 57.8459 10.0804ZM55.7766 39.4634H26.8055V14.2188H55.7766V39.4634Z" fill="black"/>
<path d="M37.6709 69.3634H34.6479C33.505 69.3634 32.5786 70.2901 32.5786 71.4327C32.5786 72.5754 33.505 73.502 34.6479 73.502H37.6709C38.8138 73.502 39.7402 72.5754 39.7402 71.4327C39.7402 70.2901 38.8138 69.3634 37.6709 69.3634Z" fill="black"/>
<path d="M47.9366 69.3634H44.9135C43.7707 69.3634 42.8442 70.2901 42.8442 71.4327C42.8442 72.5754 43.7707 73.502 44.9135 73.502H47.9366C49.0794 73.502 50.0059 72.5754 50.0059 71.4327C50.0059 70.2901 49.0793 69.3634 47.9366 69.3634Z" fill="black"/>
<path d="M35.0844 52.4311H32.6013V49.946C32.6013 48.8034 31.6749 47.8767 30.532 47.8767C29.3892 47.8767 28.4628 48.8034 28.4628 49.946V52.4311H25.9777C24.8348 52.4311 23.9084 53.3577 23.9084 54.5004C23.9084 55.6431 24.8348 56.5697 25.9777 56.5697H28.4628V59.0527C28.4628 60.1954 29.3892 61.122 30.532 61.122C31.6749 61.122 32.6013 60.1954 32.6013 59.0527V56.5697H35.0844C36.2272 56.5697 37.1537 55.6431 37.1537 54.5004C37.1537 53.3577 36.2272 52.4311 35.0844 52.4311Z" fill="black"/>
</g>
<defs>
<clipPath id="clip0">
<rect width="80.9192" height="80.9192" fill="white" transform="translate(0.831421 0.452301)"/>
</clipPath>
</defs>
</svg>
