<svg width="80" height="79" viewBox="0 0 80 79" fill="none" xmlns="http://www.w3.org/2000/svg">
<g clip-path="url(#clip0)">
<path d="M79.0379 53.5817C79.0379 42.1225 71.3167 32.1107 60.4286 29.0937C59.7442 13.1432 46.5558 0.377136 30.4399 0.377136C13.8872 0.377136 0.421143 13.8432 0.421143 30.3959C0.421143 35.7904 1.85706 41.0429 4.58374 45.6541L0.531506 60.3036L15.1816 56.252C19.4204 58.7585 24.202 60.1705 29.1371 60.3834C32.1535 71.2721 42.1659 78.9939 53.6257 78.9939C58.1997 78.9939 62.6478 77.7757 66.5561 75.4611L78.927 78.883L75.5051 66.5121C77.8197 62.6038 79.0379 58.1557 79.0379 53.5817ZM15.9085 51.2712L7.13829 53.6974L9.56447 44.9272L9.01146 44.0623C6.40533 39.9848 5.0276 35.259 5.0276 30.3959C5.0276 16.3834 16.4274 4.98359 30.4399 4.98359C44.4524 4.98359 55.8521 16.3834 55.8521 30.3959C55.8521 44.4083 44.4524 55.8081 30.4399 55.8081C25.5767 55.8081 20.8515 54.4304 16.7734 51.8243L15.9085 51.2712ZM72.3208 72.2768L65.813 70.4762L64.9439 71.0418C61.5748 73.2305 57.6605 74.3875 53.6257 74.3875C44.6191 74.3875 36.7048 68.564 33.9007 60.2136C47.6925 58.6236 58.6676 47.6485 60.2582 33.8561C68.608 36.6607 74.4315 44.5751 74.4315 53.5817C74.4315 57.6165 73.2745 61.5308 71.0858 64.8999L70.5202 65.769L72.3208 72.2768Z" fill="black"/>
<path d="M28.1366 41.9888H32.7431V46.5952H28.1366V41.9888Z" fill="black"/>
<path d="M35.0463 23.4094C35.0463 24.7176 34.5137 25.925 33.5468 26.8097L28.1366 31.7616V37.3823H32.7431V33.7901L36.6568 30.2081C38.5605 28.4657 39.6528 25.9879 39.6528 23.4094C39.6528 18.3291 35.5202 14.1965 30.4399 14.1965C25.3596 14.1965 21.227 18.3291 21.227 23.4094H25.8334C25.8334 20.8693 27.8997 18.803 30.4399 18.803C32.98 18.803 35.0463 20.8693 35.0463 23.4094Z" fill="black"/>
</g>
<defs>
<clipPath id="clip0">
<rect width="78.6168" height="78.6168" fill="white" transform="translate(0.421143 0.377136)"/>
</clipPath>
</defs>
</svg>
