<svg width="80" height="80" viewBox="0 0 80 80" fill="none" xmlns="http://www.w3.org/2000/svg">
<g clip-path="url(#clip0)">
<path d="M0.315398 7.67572L5.62168 16.9612C5.80067 17.2749 6.10025 17.5019 6.45058 17.5898L11.4011 18.8274L28.3802 35.8065L30.2563 33.931L13.0114 16.6867C12.8417 16.5164 12.6289 16.3958 12.3959 16.3374L7.63909 15.144L3.12133 7.23371L6.99463 3.36041L14.9082 7.88253L16.1022 12.6393C16.16 12.8729 16.2812 13.0862 16.4509 13.2559L33.6958 30.5008L35.5713 28.6247L18.5922 11.6456L17.3545 6.69784C17.2667 6.34697 17.0397 6.04684 16.7259 5.8673L7.43992 0.561567C6.92206 0.266895 6.2705 0.354205 5.84814 0.774932L0.542405 6.08121C0.115676 6.50085 0.0229085 7.15349 0.315398 7.67572Z" fill="black"/>
<path d="M55.4654 26.5206L26.2825 55.704L24.4064 53.8279L53.5899 24.645L55.4654 26.5206Z" fill="black"/>
<path d="M21.1749 56.7365C20.9348 56.337 20.5037 56.0931 20.0377 56.0931H12.0788C11.6133 56.0931 11.1817 56.337 10.9422 56.7365L6.96244 63.3688C6.70979 63.789 6.70979 64.3145 6.96244 64.7352L10.9422 71.3675C11.1817 71.7664 11.6133 72.0109 12.0788 72.0109H20.0377C20.5037 72.0109 20.9348 71.7664 21.1749 71.3675L25.1541 64.7352C25.4067 64.3145 25.4067 63.789 25.1541 63.3688L21.1749 56.7365ZM19.2874 69.3577H12.8297L9.64614 64.052L12.8297 58.7457H19.2874L22.4709 64.052L19.2874 69.3577Z" fill="black"/>
<path d="M63.8133 32.2159C72.5744 32.2454 79.7011 25.1667 79.7305 16.4057C79.7349 15.072 79.5712 13.7438 79.2432 12.4511C79.0664 11.74 78.3467 11.3073 77.6356 11.4841C77.4021 11.5425 77.1893 11.6631 77.019 11.8328L68.7616 20.0847L62.2101 17.9014L60.0252 11.3515L68.2825 3.09249C68.8004 2.57408 68.7998 1.73427 68.2814 1.21641C68.1106 1.04561 67.8956 0.924463 67.6604 0.86662C59.1641 -1.28503 50.5329 3.85809 48.3812 12.3539C48.0544 13.6428 47.8912 14.9678 47.8956 16.2976C47.8989 17.3421 48.0064 18.3832 48.2181 19.4059L19.1672 48.4562C18.1446 48.245 17.1034 48.1375 16.0595 48.1337C7.26794 48.1337 0.141235 55.2604 0.141235 64.052C0.141235 72.843 7.26794 79.9697 16.0595 79.9697C24.8506 79.9697 31.9773 72.843 31.9773 64.052C31.974 63.0075 31.866 61.9664 31.6548 60.9437L38.6096 53.9889L41.6513 57.0306C42.1697 57.5485 43.0089 57.5485 43.5273 57.0306L44.1904 56.367C44.7721 55.7892 45.7123 55.7892 46.294 56.367C46.8751 56.9466 46.8762 57.8873 46.2967 58.4685C46.2962 58.469 46.2951 58.4701 46.294 58.4712L45.631 59.1342C45.1131 59.6521 45.1131 60.4919 45.631 61.0098L61.4549 76.8337C65.6168 81.0338 72.3954 81.0644 76.5956 76.9024C80.7952 72.7404 80.8257 65.9613 76.6638 61.7617C76.6414 61.7388 76.6185 61.7159 76.5956 61.693L60.7717 45.8696C60.2538 45.3518 59.414 45.3518 58.8961 45.8696L58.2331 46.5326C57.6509 47.1111 56.7112 47.1111 56.1289 46.5326C55.5483 45.9531 55.5467 45.0123 56.1262 44.4317C56.1273 44.4306 56.1284 44.4301 56.1289 44.429L56.7925 43.7654C57.3104 43.2476 57.3104 42.4078 56.7925 41.8899L53.7508 38.8482L60.7056 31.8934C61.7283 32.1046 62.7694 32.2127 63.8133 32.2159ZM69.0252 77.3171C68.0615 77.3155 67.106 77.1414 66.204 76.8026L76.5639 66.4421C78.1273 70.6008 76.0237 75.2392 71.865 76.8026C70.9575 77.1436 69.9954 77.3182 69.0252 77.3171ZM53.9975 42.841C52.5285 44.5933 52.7588 47.2049 54.511 48.6734C56.0509 49.9639 58.2953 49.9628 59.8336 48.6695L74.72 63.569C74.8815 63.7311 75.0327 63.9019 75.1789 64.0755L63.8373 75.4171C63.6633 75.2714 63.4925 75.1202 63.3304 74.9581L48.4325 60.0592C49.9015 58.307 49.6713 55.6953 47.919 54.2268C46.3791 52.9357 44.1341 52.9374 42.5959 54.2301L40.4737 52.1079L51.8747 40.7238L53.9975 42.841ZM59.354 29.4995L29.2619 59.5855C28.9318 59.9151 28.7992 60.3937 28.9116 60.8461C30.7315 67.993 26.4129 75.2621 19.2655 77.0814C12.1186 78.9013 4.84944 74.5827 3.02957 67.4353C1.21024 60.2884 5.52882 53.0192 12.6763 51.1994C14.8383 50.6493 17.1034 50.6493 19.2655 51.1994C19.7178 51.3101 20.1953 51.1775 20.526 50.8496L50.6109 20.763C50.9405 20.4334 51.0731 19.9548 50.9596 19.503C49.1523 12.4396 53.413 5.2485 60.4764 3.44064C61.8112 3.09958 63.1918 2.96862 64.5669 3.05429L57.5696 10.0544C57.2143 10.4091 57.0899 10.9346 57.2487 11.411L59.9013 19.3704C60.0339 19.766 60.3449 20.0771 60.7411 20.2086L68.7005 22.8617C69.1764 23.0205 69.7019 22.8966 70.0571 22.5419L77.0545 15.5446C77.0703 15.7978 77.0785 16.0482 77.0785 16.2976C77.1156 23.5864 71.2374 29.5251 63.9487 29.5628C62.8218 29.5682 61.6988 29.4296 60.6074 29.1502C60.155 29.0373 59.6765 29.1693 59.3469 29.4989H59.354V29.4995Z" fill="black"/>
<path d="M68.7311 67.0931L66.8551 68.9692L53.5905 55.7046L55.466 53.8285L68.7311 67.0931Z" fill="black"/>
</g>
<defs>
<clipPath id="clip0">
<rect width="79.564" height="79.564" fill="white" transform="translate(0.0636597 0.377136)"/>
</clipPath>
</defs>
</svg>
