<svg width="81" height="81" viewBox="0 0 81 81" fill="none" xmlns="http://www.w3.org/2000/svg">
<path d="M7.09418 10.5193C7.09418 8.6766 8.588 7.18278 10.4307 7.18278H37.1228C38.0076 7.18278 38.8565 7.53431 39.482 8.16001L72.8472 41.5252C74.1501 42.8281 74.1501 44.9408 72.8472 46.2437L46.1551 72.9358C44.8522 74.2387 42.7395 74.2387 41.4366 72.9358L8.07141 39.5706C7.44571 38.9451 7.09418 38.0962 7.09418 37.2114V10.5193ZM13.7672 13.8558V35.8294L43.7958 65.858L65.7694 43.8844L35.7408 13.8558H13.7672Z" fill="#0D0D0D"/>
<path d="M30.4498 25.5336C30.4498 28.2977 28.2091 30.5384 25.445 30.5384C22.6809 30.5384 20.4402 28.2977 20.4402 25.5336C20.4402 22.7695 22.6809 20.5288 25.445 20.5288C28.2091 20.5288 30.4498 22.7695 30.4498 25.5336Z" fill="#0D0D0D"/>
</svg>
