<svg width="73" height="73" viewBox="0 0 73 73" fill="none" xmlns="http://www.w3.org/2000/svg">
<g clip-path="url(#clip0)">
<path d="M62.0117 10.7609C55.2135 3.96255 46.1748 0.218689 36.5607 0.218689C26.9465 0.218689 17.9077 3.96255 11.1096 10.7608C4.31123 17.559 0.567368 26.5978 0.567368 36.212C0.567368 45.8261 4.31123 54.8648 11.1096 61.6631C17.9077 68.4613 26.9465 72.2051 36.5607 72.2051C46.175 72.2051 55.2135 68.4613 62.0119 61.6629C68.81 54.8648 72.554 45.826 72.554 36.2118C72.554 26.5977 68.81 17.559 62.0117 10.7609ZM14.0952 13.7465C17.2602 10.5815 20.9758 8.16744 25.0257 6.59175C23.947 7.93841 22.9376 9.48626 22.0126 11.2272C20.9383 13.249 20.0113 15.4694 19.2393 17.8412C16.5648 17.3973 14.0868 16.8515 11.8729 16.211C12.5668 15.3581 13.307 14.5347 14.0952 13.7465ZM9.31669 19.8442C11.9061 20.6733 14.8674 21.3725 18.0986 21.9263C17.1988 25.7458 16.6692 29.8559 16.5428 34.1009H4.86069C5.19251 29.0066 6.7225 24.1447 9.31669 19.8442ZM9.08681 52.1894C6.63266 47.9856 5.18252 43.264 4.86055 38.3231H16.5508C16.6889 42.4467 17.2079 46.44 18.0774 50.1595C14.7798 50.6941 11.7441 51.3756 9.08681 52.1894ZM14.0952 58.6774C13.1982 57.7803 12.3628 56.8383 11.5882 55.8577C13.8832 55.2214 16.4488 54.6825 19.2106 54.2503C19.9881 56.6549 20.9251 58.9048 22.0125 60.9515C23.0206 62.8486 24.1289 64.5155 25.318 65.9434C21.1548 64.3711 17.3363 61.9182 14.0952 58.6774ZM34.4494 67.4411C31.2427 66.5428 28.2091 63.6144 25.7413 58.9702C24.8782 57.346 24.1201 55.574 23.4706 53.6855C26.9476 53.3028 30.6475 53.0765 34.4494 53.0234V67.4411ZM34.4494 48.8008C30.2332 48.8583 26.1236 49.123 22.275 49.5751C21.426 46.0656 20.9153 42.267 20.7751 38.3232H34.4496V48.8008H34.4494ZM34.4494 34.1008H20.7671C20.8951 30.0467 21.4141 26.1422 22.2895 22.5434C26.1135 23.0214 30.2145 23.3122 34.4494 23.3954V34.1008ZM34.4494 19.1725C30.6327 19.0956 26.941 18.8468 23.4886 18.4407C24.1341 16.5719 24.8863 14.8178 25.7413 13.2083C28.209 8.56407 31.2427 5.63568 34.4494 4.73739V19.1725ZM63.9377 20.0684C66.4507 24.3135 67.9345 29.0947 68.2609 34.1008H56.5788C56.4539 29.9047 55.9343 25.8407 55.0534 22.0589C58.3058 21.5336 61.3038 20.8653 63.9377 20.0684ZM59.026 13.7465C59.8736 14.5942 60.6655 15.4828 61.4041 16.4053C59.1442 17.0224 56.6276 17.5461 53.9236 17.9676C53.1436 15.5482 52.2023 13.285 51.1089 11.2272C50.1838 9.48626 49.1745 7.93841 48.0958 6.59175C52.1453 8.16744 55.8611 10.5815 59.026 13.7465ZM38.6719 38.3232H52.3464C52.2052 42.2977 51.6876 46.125 50.8265 49.6572C47.0031 49.1818 42.9039 48.8937 38.6719 48.8127V38.3232ZM38.6719 34.1008V23.4095C42.8906 23.3541 47.0034 23.0916 50.8556 22.6413C51.7168 26.2129 52.2273 30.0834 52.3543 34.1008H38.6719ZM38.6716 4.73739H38.6718C41.8785 5.63568 44.9121 8.56407 47.3799 13.2083C48.2485 14.8431 49.011 16.6274 49.6632 18.5297C46.1816 18.911 42.4775 19.1356 38.6716 19.1869V4.73739ZM38.6719 67.4411V53.0356C42.4849 53.1104 46.1738 53.357 49.625 53.7606C48.9812 55.621 48.2315 57.3675 47.38 58.9702C44.9122 63.6144 41.8787 66.5428 38.6719 67.4411ZM59.026 58.6774C55.785 61.9184 51.9665 64.3711 47.8032 65.9433C48.9923 64.5154 50.1006 62.8486 51.1087 60.9515C52.1801 58.9352 53.1049 56.7211 53.8757 54.3566C56.6125 54.8083 59.1444 55.3669 61.3998 56.0239C60.6627 56.9443 59.8721 57.8312 59.026 58.6774ZM63.922 52.3821C61.302 51.5398 58.2981 50.831 55.0185 50.2717C55.9037 46.5206 56.4312 42.4882 56.5708 38.3232H68.2611C67.9338 43.3395 66.4448 48.1304 63.922 52.3821Z" fill="black"/>
</g>
<defs>
<clipPath id="clip0">
<rect width="71.9865" height="71.9865" fill="white" transform="translate(0.567368 0.218689)"/>
</clipPath>
</defs>
</svg>
